# xmcd
# 
# Track frame offsets:
#     150
#     15018
#     25056
#     43562
#     55868
#     72342
#     86152
#     105851
#     118055
#     134366
#     143973
#     161666
#     173722
#     186566
#     197294
#     215130
#     226477
#     242332
#     254857
#     266716
#     271121
#     286338
#     297085
#     311355
#     325675
#     337696
# 
# Disc length: 4720
# 
# Revision: 1
# Processed by: cddbd v1.5.2PL0 Copyright (c) Steve Scherf et al.
# Submitted via: fre:ac v1.0.17
# 
DISCID=72126e1a
DTITLE=The Oxford American - Southern Music CD [CD1 of 2)
DYEAR=2013
DGENRE=Blues
TTITLE0=Sid Selvidge - That's How I Got To Memphis
TTITLE1=Phineas Newborn, JR. - Memphis Blues
TTITLE2=James Luther Dickinson - The Judgement
TTITLE3=Gus Cannon - Can You Blame The Colored Man
TTITLE4=Charlie Rich - Life Has It's Little Ups and Downs
TTITLE5=Ann Peebles - Beware
TTITLE6=Matraca Berg - If I Had Wings
TTITLE7=John Hartford - Up On The Hill Where They Do The Boogie
TTITLE8=Emmylou Harris - Take That Ride
TTITLE9=Elvis Presley - Known Only To Him
TTITLE10=John Buck Wilkin - Nashville Sun
TTITLE11=Bobby Hebb - Sunny
TTITLE12=Big Maybelle - One Monkey Don't Stop No Show
TTITLE13=Bob Dylan - I Threw It All Away
TTITLE14=Tommy Womack - 25 Years Ago
TTITLE15=William Lee Ellis - Where Would I Go
TTITLE16=Human Radio - These Are The Days
TTITLE17=Bessie Smith - Need A Little Sugar In My Bowl
TTITLE18=Tennessee Ernie Ford (With Kay Starr) - Ain't Nobody's Business But My Own
TTITLE19=Fisk University Jubilee Singers - Ain't No Grave Can Hold My Body Down
TTITLE20=Tupper Saussy - If You Come This Way Again
TTITLE21=Connie Smith - Haunted Heart
TTITLE22=Johnny Cash - Monteagle Mountain
TTITLE23=Sleepy John Estes - Lawyer Clark Blues
TTITLE24=The Prisonaires - Just Walkin' In The Rain
TTITLE25=Buddy and Julie Miller and the McCrary Sisters - Something Within
EXTD=
EXTT0=
EXTT1=
EXTT2=
EXTT3=
EXTT4=
EXTT5=
EXTT6=
EXTT7=
EXTT8=
EXTT9=
EXTT10=
EXTT11=
EXTT12=
EXTT13=
EXTT14=
EXTT15=
EXTT16=
EXTT17=
EXTT18=
EXTT19=
EXTT20=
EXTT21=
EXTT22=
EXTT23=
EXTT24=
EXTT25=
PLAYORDER=
